<?xml version="1.0" encoding="UTF-8" standalone="no"?>
<!-- Created with Inkscape (http://www.inkscape.org/) -->

<svg
   width="21.886"
   height="25"
   viewBox="0 0 5.7906706 6.6145835"
   version="1.1"
   id="svg5"
   inkscape:version="1.1.2 (b8e25be833, 2022-02-05)"
   sodipodi:docname="copy.svg"
   xmlns:inkscape="http://www.inkscape.org/namespaces/inkscape"
   xmlns:sodipodi="http://sodipodi.sourceforge.net/DTD/sodipodi-0.dtd"
   xmlns="http://www.w3.org/2000/svg"
   xmlns:svg="http://www.w3.org/2000/svg">
  <sodipodi:namedview
     id="namedview7"
     pagecolor="#ffffff"
     bordercolor="#999999"
     borderopacity="1"
     inkscape:pageshadow="0"
     inkscape:pageopacity="0"
     inkscape:pagecheckerboard="0"
     inkscape:document-units="px"
     showgrid="false"
     units="px"
     width="21.886px"
     inkscape:zoom="14.493388"
     inkscape:cx="4.7262933"
     inkscape:cy="19.388152"
     inkscape:window-width="1920"
     inkscape:window-height="1137"
     inkscape:window-x="-8"
     inkscape:window-y="-8"
     inkscape:window-maximized="1"
     inkscape:current-layer="layer1" />
  <defs
     id="defs2" />
  <g
     inkscape:label="Vrstva 1"
     inkscape:groupmode="layer"
     id="layer1">
    <path
       style="fill:#a4ffaf;fill-opacity:1;stroke-width:0.0129262"
       d="m 0.68880158,6.6055001 c -0.15741,-0.03151 -0.32222,-0.126468 -0.4479,-0.258041 -0.108,-0.113073 -0.17878,-0.238712 -0.21561,-0.382738 C 3.9157852e-4,5.8674811 -2.0842148e-4,5.8130021 -8.4214836e-6,3.7246061 2.2157852e-4,1.3375331 -0.00600842,1.4922891 0.09199158,1.2933191 c 0.0431,-0.08784 0.0762,-0.132144 0.16504,-0.220927 0.17582,-0.17565295 0.30122,-0.22588695 0.59912,-0.24001095 l 0.17774002,-0.0084 v -0.0347 c 0,-0.06574 0.0511,-0.234246 0.0992,-0.327096 0.034,-0.06558 0.0808,-0.125653 0.1587,-0.20344 0.11213,-0.111988 0.19492,-0.165346 0.34609,-0.223051 l 0.0746,-0.0285 1.31449,-0.0036 1.31449,-0.0036000011 0.72462,0.8303390011 0.72462,0.83033895 v 1.688553 c 0,1.638249 -7.6e-4,1.691521 -0.0255,1.788219 -0.0405,0.158432 -0.10582,0.269745 -0.2324,0.396169 -0.18351,0.183295 -0.32754,0.244591 -0.59847,0.2547 l -0.17774,0.0066 v 0.03505 c 0,0.06606 -0.051,0.234392 -0.0992,0.327449 -0.034,0.06558 -0.0808,0.125653 -0.15871,0.20344 -0.11212,0.111986 -0.1949,0.165336 -0.34609,0.223055 l -0.0746,0.0285 -1.66748,0.002 c -0.91711,0.0011 -1.69189002,-0.0029 -1.72173002,-0.0089 z M 4.0909316,6.1670451 c 0.12447,-0.06117 0.22673,-0.193898 0.24664,-0.320122 l 0.009,-0.05458 -1.31684,-0.0036 -1.31684,-0.0036 -0.0746,-0.0285 c -0.15117,-0.0577 -0.23396,-0.111063 -0.34609,-0.223051 -0.12657,-0.126424 -0.19187,-0.237737 -0.23239,-0.396169 -0.0248,-0.09698 -0.0255,-0.150971 -0.0255,-1.999651 v -1.899984 l -0.15357002,0.0071 c -0.11447,0.0053 -0.16866,0.01375 -0.21285,0.0333 -0.0831,0.03674 -0.18085,0.132566 -0.2171,0.212723 l -0.0305,0.06739 -0.003,2.138689 c -0.004,2.367282 -0.009,2.208376 0.0803,2.329474 0.0515,0.06966 0.14273,0.136537 0.21906,0.160572 0.0424,0.01334 0.38093002,0.01621 1.68174002,0.01423 l 1.6287,-0.0025 z m 1.0341,-0.827276 c 0.0826,-0.04059 0.17324,-0.131243 0.21383,-0.213835 l 0.0318,-0.06463 0.003,-1.495194 0.003,-1.495194 -0.38476,-0.0049 c -0.37666,-0.0048 -0.38677,-0.0056 -0.47958,-0.03888 -0.13598,-0.04872 -0.22755,-0.10697 -0.33132,-0.210736 -0.10325,-0.103248 -0.16138,-0.194365 -0.21138,-0.331322 l -0.0346,-0.09481 -0.004,-0.48824895 -0.004,-0.488249 -1.08172,0.0035 -1.08173,0.0035 -0.0646,0.03176 c -0.0826,0.04059 -0.17325,0.131243 -0.21384,0.213835 l -0.0318,0.06463 -0.003,2.13868895 c -0.004,2.367282 -0.009,2.208376 0.0803,2.329474 0.0515,0.06965 0.14272,0.136537 0.21905,0.160571 0.0424,0.01334 0.38094,0.01621 1.68175,0.01424 l 1.6287,-0.0025 z m -2.72807,-1.013926 c -0.0217,-0.0095 -0.0549,-0.03569 -0.0738,-0.05817 -0.0925,-0.109924 -0.0359,-0.286078 0.10407,-0.32376 0.0371,-0.01 0.34203,-0.01323 1.01351,-0.01074 0.93716,0.0035 0.96153,0.0042 1.00567,0.0297 0.0628,0.03629 0.1069,0.124447 0.0992,0.198305 -0.006,0.06085 -0.0347,0.107407 -0.0913,0.149607 -0.0352,0.02632 -0.0482,0.02669 -1.02684,0.0295 -0.80424,0.0023 -0.99857,-4.1e-4 -1.03056,-0.01444 z m 0,-1.034095 c -0.0217,-0.0095 -0.0549,-0.03569 -0.0738,-0.05817 -0.0929,-0.110372 -0.0347,-0.286394 0.10728,-0.324625 0.033,-0.0089 0.37579,-0.01223 1.01126,-0.0099 l 0.96138,0.0036 0.0526,0.03485 c 0.0371,0.02454 0.0593,0.05221 0.0751,0.0936 0.0369,0.09666 0.0108,0.180444 -0.0764,0.245619 -0.0352,0.02631 -0.0482,0.02669 -1.02684,0.0295 -0.80424,0.0023 -0.99857,-4.09e-4 -1.03056,-0.01444 z m 2.919,-1.710822 c -0.035,-0.04088 -0.26039,-0.309905 -0.50081,-0.59783595 -0.24041,-0.287931 -0.44534,-0.532236 -0.4554,-0.5429 -0.0158,-0.01674 -0.0177,0.03096 -0.014,0.349007 0.004,0.34904595 0.006,0.37280995 0.0349,0.45241695 0.0425,0.11711 0.12439,0.2554 0.18755,0.31688 0.0978,0.09523 0.10227,0.09613 0.47735,0.09646 l 0.33413,3.03e-4 z"
       id="path854" />
  </g>
</svg>
